<?xml version="1.0" encoding="utf-8"?>
<!-- Generator: Adobe Illustrator 26.2.1, SVG Export Plug-In . SVG Version: 6.00 Build 0)  -->
<svg version="1.1" id="Layer_1" xmlns="http://www.w3.org/2000/svg" xmlns:xlink="http://www.w3.org/1999/xlink" x="0px" y="0px"
	 width="475.9px" height="210.6px" viewBox="0 0 475.9 210.6" style="enable-background:new 0 0 475.9 210.6;" xml:space="preserve"
	>
<style type="text/css">
	.st0{fill:#5C7E96;}
	.st1{fill:#FFFFFF;}
</style>
<g>
	<g>
		<path class="st0" d="M60.2,0C40.1,46.8,17.1,100.5,0,140.3h463.1c10.5,0,12.8-6.6,12.8-14V0H60.2z"/>
		<path class="st1" d="M114.8,34.6c0,0,1.9-4.3,2.7-6.1c0.9-2,3.6-2.3,4.6,0.2c0.8,1.9,32.9,76.9,32.9,76.9h-9.8L114.8,34.6z
			 M111.9,41.6l4.8,11.3l-12.5,28.9h24.9l3.5,8.2h-32L94,105.6h-5.3c-2.4,0-3.5-2.2-2.3-4.8C90.1,92.6,111.9,41.6,111.9,41.6"/>
		<path class="st1" d="M207.4,42.1c9.5,0,17.4,4.2,22.9,12.2l0.2,0.3l6.8-5.4l-0.2-0.3c-6.3-9.6-17.4-15.3-29.7-15.3
			c-7.1,0-13.2,1.4-18.3,4.5c-2.7,1.6-4,3.4-4,7.7v6.1l0.6-0.7C189,48,195.9,42.1,207.4,42.1"/>
		<path class="st1" d="M233.2,88.3c-0.7-0.5-1.3-0.8-2-0.8c-1.5,0-2.6,1.2-3.3,2.1l-0.2,0.2c-5.3,5.8-12.3,8.9-20.3,8.9
			c-15.8,0-27.7-12.3-27.7-28.6V46.2l-0.7,0.7c-5.7,6-8.8,14.2-8.8,23.2c0,20.8,16.3,37,37.2,37c12.3,0,23.7-5.9,29.7-15.3l0.2-0.3
			l-0.3-0.2C237,91.3,234.9,89.7,233.2,88.3"/>
		<path class="st1" d="M310.9,55.6c0-12.4-9.2-20.7-23-20.7h-25.3v66.9c0,2.9,1.1,4.2,3.6,4.2h5.5V43h16c8.4,0,13.7,4.8,13.7,12.6
			c0,7.7-5.3,12.5-13.7,12.5h-6.1c-3.2,0-4.5,1.1-4.5,3.8v4.4h10.7C301.7,76.4,310.9,68,310.9,55.6"/>
		<path class="st1" d="M299.6,79.9c-2.8,1.1-6,1.7-9.3,1.9l18,24.1H319L299.6,79.9z"/>
		<path class="st1" d="M372.5,98.7c-15.8,0-27.6-12.3-27.6-28.6V46.2l-0.6,0.7c-5.7,6-8.8,14.2-8.8,23.2c0,20.8,16.3,37,37.2,37
			c8.8,0,16.4-2.7,22.2-7.2l0.1-0.1V88.9l-0.6,0.7C388.7,95.2,380.9,98.7,372.5,98.7"/>
		<path class="st1" d="M372.5,33.7c-6.8,0-12.4,1.4-17.8,4.2c-3.2,1.7-4.4,4-4.4,7.3v6.7l0.6-0.7c6-5.9,13.3-9.2,21.7-9.2
			c15.8,0,27.7,12.3,27.7,28.6v23.9l0.6-0.7c5.6-5.9,8.7-14.1,8.7-23.2C409.7,49.9,393.4,33.7,372.5,33.7"/>
	</g>
	<g>
		<g>
			<path class="st0" d="M83.3,200.6l6.3-30h16.1l-0.9,4.5H94l-1.8,8.8h10.1l-1,4.5H91.2l-2.6,12.2H83.3z"/>
			<path class="st0" d="M105.1,200.6l6.8-31.9h5.2l-6.8,31.9H105.1z"/>
			<path class="st0" d="M116.6,210.6c-0.7,0-1.3,0-1.7-0.1s-0.9-0.2-1.2-0.3V206c0.4,0.1,0.7,0.2,1.2,0.2c0.4,0.1,0.8,0.1,1.3,0.1
				c1.2,0,2.3-0.4,3.1-1.1c0.8-0.7,1.6-1.7,2.2-3l0.9-1.6l-3.4-22.9h5.2l1.3,10.8c0.1,1.1,0.2,2.3,0.3,3.7c0.1,1.3,0.1,2.4,0.1,3.2
				h0.1c0.3-0.7,0.7-1.6,1.1-2.8c0.5-1.2,1-2.3,1.5-3.4l5.8-11.5h5.7L126,203.9c-1.2,2.2-2.6,3.9-4.1,5
				C120.4,210.1,118.6,210.6,116.6,210.6z"/>
			<path class="st0" d="M151.4,200.6l4.8-22.7h5.2l-4.8,22.7H151.4z M159.8,174.6c-0.8,0-1.4-0.2-1.9-0.5c-0.5-0.4-0.8-1-0.8-1.8
				c0-1,0.3-1.8,0.8-2.4c0.6-0.6,1.4-0.9,2.4-0.9c0.8,0,1.4,0.2,1.9,0.5c0.5,0.4,0.8,0.9,0.8,1.7c0,1-0.3,1.8-0.9,2.4
				C161.6,174.3,160.8,174.6,159.8,174.6z"/>
			<path class="st0" d="M163.9,200.6l4.9-22.8h4.2l-0.4,4.2h0.1c0.9-1.2,1.9-2.3,3.1-3.2c1.2-0.9,2.6-1.4,4.3-1.4
				c1.9,0,3.4,0.6,4.4,1.7s1.5,2.6,1.5,4.6c0,0.6,0,1.2-0.1,1.8c-0.1,0.7-0.2,1.3-0.3,1.9l-2.8,13.3h-5.3l2.9-13.7
				c0.3-1.1,0.4-1.9,0.4-2.6c0-1.7-0.8-2.6-2.4-2.6c-1.4,0-2.7,0.8-4,2.5c-1.2,1.6-2.2,3.9-2.8,6.8l-2.1,9.6h-5.6V200.6z"/>
			<path class="st0" d="M208.8,201c-1.7,0-3-0.4-4.1-1.1c-1.1-0.8-1.6-2.1-1.6-4c0-0.4,0-0.8,0.1-1.2c0-0.4,0.1-0.9,0.2-1.4
				l2.4-11.5h-3.3l0.5-2.5l3.9-1.7l2.6-4.7h3.3l-1,5h5.7l-0.8,4H211l-2.4,11.5c-0.1,0.3-0.1,0.6-0.2,0.9s-0.1,0.6-0.1,0.8
				c0,1.2,0.7,1.8,2,1.8c0.5,0,1-0.1,1.6-0.2c0.5-0.1,1-0.3,1.6-0.5v3.9c-0.5,0.3-1.2,0.5-2.1,0.7C210.6,200.9,209.7,201,208.8,201z
				"/>
			<path class="st0" d="M218.4,200.6l6.8-31.9h5.2l-1.4,6.6c-0.2,0.8-0.4,1.6-0.6,2.4s-0.4,1.6-0.7,2.3c-0.2,0.7-0.3,1.1-0.4,1.4
				h0.2c0.8-1,1.8-1.9,2.9-2.7c1.1-0.8,2.4-1.2,4-1.2c1.9,0,3.3,0.6,4.3,1.7s1.5,2.7,1.5,4.6c0,0.5,0,1.1-0.1,1.7
				c-0.1,0.6-0.2,1.2-0.3,1.9l-2.8,13.3h-5.2l2.9-13.6c0.1-0.5,0.2-1,0.3-1.4c0.1-0.4,0.1-0.8,0.1-1.1c0-1.8-0.8-2.7-2.5-2.7
				c-1.4,0-2.8,0.8-4,2.5c-1.2,1.7-2.2,3.9-2.8,6.8l-2,9.6h-5.4V200.6z"/>
			<path class="st0" d="M253.9,201c-2.7,0-4.8-0.7-6.3-2.2c-1.6-1.5-2.3-3.7-2.3-6.5c0-1.9,0.3-3.7,0.8-5.5c0.5-1.8,1.3-3.3,2.4-4.8
				c1-1.4,2.3-2.5,3.8-3.4c1.5-0.8,3.2-1.3,5.2-1.3c2.4,0,4.2,0.5,5.4,1.6c1.2,1.1,1.8,2.5,1.8,4.3c0,2.3-1.1,4.2-3.2,5.7
				s-5.4,2.2-9.9,2.2h-0.9c0,0.2-0.1,0.4-0.1,0.6s0,0.4,0,0.6c0,1.4,0.4,2.5,1.1,3.3c0.8,0.8,1.9,1.2,3.3,1.2c1.1,0,2.2-0.1,3.2-0.4
				s2.1-0.7,3.4-1.3v4.1c-1.1,0.5-2.3,1-3.5,1.3C256.8,200.8,255.4,201,253.9,201z M251.2,187.5h0.7c2.4,0,4.3-0.4,5.7-1.1
				c1.4-0.7,2.1-1.7,2.1-3c0-1.4-0.8-2.1-2.5-2.1c-1.2,0-2.4,0.6-3.5,1.7C252.4,184.1,251.6,185.6,251.2,187.5z"/>
			<path class="st0" d="M279.7,200.6l6.3-30h16.1l-0.9,4.5h-10.8l-1.8,8.8h10.1l-1,4.5h-10.1l-2.6,12.2H279.7z"/>
			<path class="st0" d="M308.6,201c-1.9,0-3.3-0.5-4.3-1.6s-1.5-2.6-1.5-4.6c0-0.6,0-1.2,0.1-1.9c0.1-0.7,0.2-1.4,0.4-2.2l2.7-12.9
				h5.2l-2.9,13.7c-0.2,1.1-0.3,1.9-0.3,2.6c0,1.8,0.8,2.6,2.5,2.6c1.4,0,2.8-0.8,4-2.5c1.2-1.7,2.2-3.9,2.8-6.8l2.1-9.6h5.2
				l-4.8,22.7h-4.1l0.4-4.2h-0.2c-0.8,1.2-1.8,2.3-3,3.2C311.7,200.5,310.3,201,308.6,201z"/>
			<path class="st0" d="M334.5,201c-1.7,0-3-0.4-4.1-1.1c-1.1-0.8-1.6-2.1-1.6-4c0-0.4,0-0.8,0.1-1.2c0-0.4,0.1-0.9,0.2-1.4
				l2.4-11.5h-3.3l0.5-2.5l3.9-1.7l2.6-4.7h3.3l-1,5h5.7l-0.8,4h-5.7l-2.4,11.5c-0.1,0.3-0.1,0.6-0.2,0.9s-0.1,0.6-0.1,0.8
				c0,1.2,0.7,1.8,2,1.8c0.5,0,1-0.1,1.6-0.2c0.5-0.1,1-0.3,1.6-0.5v3.9c-0.5,0.3-1.2,0.5-2.1,0.7C336.4,200.9,335.5,201,334.5,201z
				"/>
			<path class="st0" d="M351.2,201c-1.9,0-3.3-0.5-4.3-1.6s-1.5-2.6-1.5-4.6c0-0.6,0-1.2,0.1-1.9c0.1-0.7,0.2-1.4,0.4-2.2l2.7-12.9
				h5.2l-2.9,13.7c-0.2,1.1-0.3,1.9-0.3,2.6c0,1.8,0.8,2.6,2.5,2.6c1.4,0,2.8-0.8,4-2.5c1.2-1.7,2.2-3.9,2.8-6.8l2.1-9.6h5.2
				l-4.8,22.7h-4.1l0.4-4.2h-0.2c-0.8,1.2-1.8,2.3-3,3.2C354.4,200.5,352.9,201,351.2,201z"/>
			<path class="st0" d="M369.9,200.6l4.8-22.7h4.1l-0.4,4.2h0.2c0.9-1.3,1.9-2.4,3-3.3c1.1-0.9,2.4-1.3,4-1.3c0.4,0,0.7,0,1.1,0.1
				s0.7,0.1,1,0.2l-1.1,5c-0.3-0.1-0.6-0.2-1-0.2c-0.4-0.1-0.7-0.1-1.1-0.1c-1.7,0-3.2,0.7-4.5,2.2s-2.2,3.4-2.6,5.8l-2.2,10.2
				L369.9,200.6L369.9,200.6z"/>
			<path class="st0" d="M396.9,201c-2.7,0-4.8-0.7-6.3-2.2c-1.6-1.5-2.3-3.7-2.3-6.5c0-1.9,0.3-3.7,0.8-5.5c0.5-1.8,1.3-3.3,2.4-4.8
				c1-1.4,2.3-2.5,3.8-3.4c1.5-0.8,3.2-1.3,5.2-1.3c2.4,0,4.2,0.5,5.4,1.6c1.2,1.1,1.8,2.5,1.8,4.3c0,2.3-1.1,4.2-3.2,5.7
				s-5.4,2.2-9.9,2.2h-0.9c0,0.2-0.1,0.4-0.1,0.6s0,0.4,0,0.6c0,1.4,0.4,2.5,1.1,3.3c0.8,0.8,1.9,1.2,3.3,1.2c1.1,0,2.2-0.1,3.2-0.4
				s2.1-0.7,3.4-1.3v4.1c-1.1,0.5-2.3,1-3.5,1.3C399.8,200.8,398.4,201,396.9,201z M394.2,187.5h0.7c2.4,0,4.3-0.4,5.7-1.1
				c1.4-0.7,2.1-1.7,2.1-3c0-1.4-0.8-2.1-2.5-2.1c-1.2,0-2.4,0.6-3.5,1.7C395.4,184.1,394.6,185.6,394.2,187.5z"/>
		</g>
	</g>
</g>
</svg>
